<svg xmlns="http://www.w3.org/2000/svg" xmlns:xlink="http://www.w3.org/1999/xlink" viewBox="0 0 255.193 63.838"><defs><style>.a{fill:#a6ce39;}.b{clip-path:url(#a);}.c{clip-path:url(#b);}.d,.g{fill:#00a34b;}.e{fill:#2376bc;}.f{fill:#2cace3;}.g{font-size:18px;font-family:AinslieSans-NorReg, AinslieSans-NorReg ☞;}</style><clipPath id="a"><rect width="38.061" height="38.061"/></clipPath><clipPath id="b"><rect width="32.863" height="38.061"/></clipPath></defs><g transform="translate(0.038 0)"><g transform="translate(-0.038)"><path class="a" d="M17.4,54.492a.294.294,0,0,1-.24-.08A18.7,18.7,0,0,1,10.2,39.459a18.756,18.756,0,0,1,7.2-14.872.344.344,0,0,1,.4.56,18.034,18.034,0,0,0-6.956,14.313,18.49,18.49,0,0,0,6.717,14.473c.16.08.16.32.08.48a.294.294,0,0,1-.24.08" transform="translate(-2.013 -4.917)"/><g transform="translate(12.584 14.952)"><g class="b"><path class="a" d="M34.75,56.661A18.971,18.971,0,0,1,17.639,45.946a21.906,21.906,0,0,1-1.359-3.838,13.913,13.913,0,0,1-.48-3.6.32.32,0,1,1,.64,0,23.738,23.738,0,0,0,.48,3.438,14.486,14.486,0,0,0,1.359,3.678A18.382,18.382,0,1,0,35.63,19.24a.32.32,0,1,1,0-.64A18.967,18.967,0,0,1,51.942,29.315a18.775,18.775,0,0,1,.8,14.553,19.059,19.059,0,0,1-9.675,10.875,18.329,18.329,0,0,1-8.316,1.919" transform="translate(-15.72 -18.68)"/></g></g><g transform="translate(13.943 10.475)"><g class="c"><path class="d" d="M36.45,51.173a18.476,18.476,0,0,1-7.436-1.519A18.773,18.773,0,0,1,18.859,39.259a19.112,19.112,0,0,1,.16-14.553,19.017,19.017,0,0,1,24.947-9.995,19.707,19.707,0,0,1,3.6,2,19.454,19.454,0,0,1,2.719,2.4c.16.16.08.32,0,.48-.16.16-.32.08-.48,0a18.267,18.267,0,0,0-2.639-2.319,14.534,14.534,0,0,0-3.438-1.919,18.395,18.395,0,1,0,4.238,31.264.344.344,0,0,1,.4.56,20.326,20.326,0,0,1-11.914,4" transform="translate(-17.42 -13.112)"/></g></g><path class="d" d="M10.4,32.056a8.556,8.556,0,1,1,8.556,8.556A8.565,8.565,0,0,1,10.4,32.056" transform="translate(-2.054 -4.709)"/><path class="d" d="M34.6,26.556A8.565,8.565,0,0,1,43.156,18a8.465,8.465,0,0,1,8.556,8.556,8.556,8.556,0,1,1-17.111,0" transform="translate(-6.904 -3.607)"/><path class="a" d="M43.19,57.086a6.552,6.552,0,1,1,7.2,5.837,6.55,6.55,0,0,1-7.2-5.837" transform="translate(-8.617 -9.99)"/><path class="a" d="M35.9,12.257a6.557,6.557,0,1,1,6.557,6.557A6.586,6.586,0,0,1,35.9,12.257" transform="translate(-7.164 -1.142)"/><path class="a" d="M16.1,66.557a6.557,6.557,0,1,1,6.557,6.557A6.586,6.586,0,0,1,16.1,66.557" transform="translate(-3.196 -12.024)"/><path class="e" d="M32,50.339a2.239,2.239,0,1,1,2.239,2.239A2.235,2.235,0,0,1,32,50.339" transform="translate(-6.382 -9.639)"/><path class="f" d="M64.051,17.111a.344.344,0,0,1-.32-.32A18.694,18.694,0,0,0,46.22.64.344.344,0,0,1,45.9.32.344.344,0,0,1,46.22,0,19.238,19.238,0,0,1,64.371,16.712a.366.366,0,0,1-.32.4h0" transform="translate(-9.168)"/><path class="f" d="M53.7,48.736a7.436,7.436,0,1,1,7.436,7.436A7.474,7.474,0,0,1,53.7,48.736" transform="translate(-10.731 -8.277)"/><path class="f" d="M61.1,16.358a4.957,4.957,0,1,1,4.957,4.957A4.931,4.931,0,0,1,61.1,16.358" transform="translate(-12.214 -2.285)"/><path class="f" d="M20.2,13.339a2.239,2.239,0,1,1,2.239,2.239A2.235,2.235,0,0,1,20.2,13.339" transform="translate(-4.018 -2.224)"/><path class="d" d="M46.852,78.931a1.6,1.6,0,1,1,2.079-.88,1.623,1.623,0,0,1-2.079.88" transform="translate(-9.16 -15.203)"/><path class="e" d="M37.1,63.757a4.958,4.958,0,1,1,4.958,4.957A4.931,4.931,0,0,1,37.1,63.757" transform="translate(-7.405 -11.784)"/><path class="e" d="M5.3,52.458a4.957,4.957,0,1,1,4.958,4.958A4.931,4.931,0,0,1,5.3,52.458" transform="translate(-1.032 -9.519)"/><path class="d" d="M.952,21.431a1.623,1.623,0,0,1-.88-2.079,1.623,1.623,0,0,1,2.079-.88,1.623,1.623,0,0,1,.88,2.079,1.593,1.593,0,0,1-2.079.88" transform="translate(0.038 -3.68)"/></g><g transform="translate(72.596 52.454)"><path d="M94.718,69.038h1.759c.24,0,.32,0,.32.32v2.559c0,.24,0,.32-.24.4a5.086,5.086,0,0,1-2.239.4c-2.479,0-3.518-1.439-3.518-3.518,0-2.159,1.039-3.6,3.6-3.6a3.234,3.234,0,0,1,2.079.56.541.541,0,0,1,.24.48c0,.16,0,.24-.16.16a4.406,4.406,0,0,0-2.159-.56c-2.079,0-2.879,1.2-2.879,2.959,0,1.679.72,2.879,2.8,2.879a3.914,3.914,0,0,0,1.759-.32V69.678H94.958a.461.461,0,0,1-.48-.48c-.08-.08,0-.16.24-.16" transform="translate(-90.8 -65.6)"/><path d="M100.44,71.159v1.759c0,.24,0,.24-.24.24h-.16c-.24,0-.24,0-.24-.24v-4c0-.16,0-.24.16-.24.4,0,.56.16.56.56v.32a1.249,1.249,0,0,1,1.279-.96c.56,0,.72.24.72.56,0,.16,0,.16-.16.16a1.361,1.361,0,0,0-.56-.08c-.88,0-1.279.72-1.359,1.919" transform="translate(-92.604 -66.201)"/><path d="M107.118,72.778v-.16a1.748,1.748,0,0,1-1.519.72c-1.119,0-1.6-.64-1.6-1.679V68.94c0-.16,0-.24.16-.24.4,0,.56.16.56.56v2.319a.989.989,0,0,0,1.039,1.119,1.224,1.224,0,0,0,1.359-1.2V68.94c0-.16,0-.24.16-.24.4,0,.56.16.56.56v3.758c0,.16,0,.24-.16.24-.4,0-.56-.16-.56-.48" transform="translate(-93.445 -66.221)"/><path d="M111.14,72.518v2.719c0,.24,0,.24-.24.24h-.16c-.24,0-.24,0-.24-.24V68.92c0-.16,0-.24.16-.24.4,0,.56.16.56.56v.24a1.961,1.961,0,0,1,1.679-.88,2.1,2.1,0,0,1,2.159,2.319,2.061,2.061,0,0,1-2.159,2.319,1.7,1.7,0,0,1-1.759-.72m1.519.16a1.532,1.532,0,0,0,1.6-1.679c0-.96-.48-1.759-1.519-1.759A1.592,1.592,0,0,0,111.14,71a1.431,1.431,0,0,0,1.519,1.679" transform="translate(-94.748 -66.201)"/><path d="M119.419,68.6a2.319,2.319,0,1,1,0,4.638,2.106,2.106,0,0,1-2.319-2.319,2.142,2.142,0,0,1,2.319-2.319m0,4.078a1.532,1.532,0,0,0,1.6-1.679,1.6,1.6,0,0,0-1.6-1.759A1.558,1.558,0,0,0,117.82,71a1.5,1.5,0,0,0,1.6,1.679" transform="translate(-96.071 -66.201)"/><path class="d" d="M124.3,72.437V66.12c0-.32.08-.32.32-.32h3.358c.16,0,.24,0,.24.16,0,.24-.16.48-.64.48H125.1v2.4h2.4c.16,0,.24,0,.24.16,0,.24-.16.48-.64.48H125.18v2.639h2.879c.24,0,.24,0,.24.24v.16c0,.16,0,.24-.24.24H124.78c-.4-.08-.48-.16-.48-.32" transform="translate(-97.514 -65.64)"/><path class="d" d="M133.838,73.238h-.16c-.24,0-.24,0-.24-.24V70.519c0-.72-.32-1.2-1.119-1.2s-1.2.48-1.279,1.279v2.319c0,.24,0,.24-.24.24h-.16c-.24,0-.24,0-.24-.24v-4c0-.16,0-.24.16-.24.4,0,.56.16.56.56v.08a1.6,1.6,0,0,1,1.439-.72c1.119,0,1.6.72,1.6,1.759v2.559c-.08.24-.16.32-.32.32" transform="translate(-98.736 -66.201)"/><path class="d" d="M137.14,71.319c.08,1.039.64,1.359,1.6,1.359a3.812,3.812,0,0,0,1.759-.4c.16-.08.24,0,.24.08a.512.512,0,0,1-.4.56,4.013,4.013,0,0,1-1.6.32A1.988,1.988,0,0,1,136.5,71c0-1.6.8-2.4,2.159-2.4,1.439,0,2.079.88,2.079,2.239,0,.24-.08.4-.4.4h-3.2Zm0-.56h2.879a1.366,1.366,0,0,0-1.439-1.519c-.88,0-1.359.56-1.439,1.519" transform="translate(-99.958 -66.201)"/><path class="d" d="M143.84,71.159v1.759c0,.24,0,.24-.24.24h-.16c-.24,0-.24,0-.24-.24v-4c0-.16,0-.24.16-.24.4,0,.56.16.56.56v.32a1.249,1.249,0,0,1,1.279-.96c.56,0,.72.24.72.56,0,.16,0,.16-.16.16a1.361,1.361,0,0,0-.56-.08c-.96,0-1.359.72-1.359,1.919" transform="translate(-101.301 -66.201)"/><path class="d" d="M147.28,75.177c-.24-.16-.4-.24-.4-.48,0-.16.08-.24.24-.16a3.757,3.757,0,0,0,1.759.4c.8,0,1.759-.24,1.759-1.919v-.48a1.91,1.91,0,0,1-1.679.8,2.325,2.325,0,0,1,0-4.638,1.8,1.8,0,0,1,1.679.88v-.16c0-.4.16-.56.56-.56.16,0,.16.08.16.24v4.078a2.1,2.1,0,0,1-2.4,2.4,3.761,3.761,0,0,1-1.679-.4m1.759-5.917c-1.039,0-1.519.72-1.519,1.759a1.493,1.493,0,0,0,1.6,1.679,1.529,1.529,0,0,0,1.6-1.679,1.7,1.7,0,0,0-1.679-1.759" transform="translate(-102.023 -66.221)"/><path class="d" d="M154.62,65.86c.08-.16.16-.16.4-.16h.4c.16,0,.16.08.08.24l-.96.96a.294.294,0,0,1-.24.08h-.32c-.08,0-.08,0-.08-.08Zm.16,2.8v3.678c0,.24,0,.24-.24.24h-.16c-.24,0-.24,0-.24-.24v-4c0-.16,0-.24.16-.24.32,0,.48.16.48.56" transform="translate(-103.445 -65.62)"/><path class="d" d="M157.959,70.779a9.183,9.183,0,0,1,1.439.08V70.3c0-.96-.72-1.039-1.279-1.039a4.839,4.839,0,0,0-1.2.16c-.24.08-.32,0-.32-.08a.438.438,0,0,1,.32-.48,5.011,5.011,0,0,1,1.279-.16c.64,0,1.919.16,1.919,1.519V73.1c0,.16,0,.24-.16.24-.4,0-.56-.16-.56-.48a2.745,2.745,0,0,1-1.679.48c-1.039,0-1.519-.4-1.519-1.279,0-.96.64-1.279,1.759-1.279m1.439.64a7.317,7.317,0,0,0-1.279-.08c-.72,0-1.2.08-1.2.64s.4.72.96.72a2.267,2.267,0,0,0,1.519-.48Z" transform="translate(-103.906 -66.221)"/><path class="d" d="M163.34,72.677c-.24,0-.24,0-.24-.24V66.12c0-.24.08-.32.32-.32h1.919c1.359,0,1.919.8,1.919,1.679a1.53,1.53,0,0,1-1.039,1.6,1.578,1.578,0,0,1,1.519,1.759c0,1.119-.72,1.919-2.239,1.919H163.34Zm.4-6.317v2.4h1.519a1.094,1.094,0,0,0,1.2-1.2c0-.64-.32-1.2-1.359-1.2Zm0,3.038v2.719h1.6c1.119,0,1.6-.56,1.6-1.359,0-.88-.56-1.359-1.6-1.359h-1.6Z" transform="translate(-105.289 -65.64)"/><path class="d" d="M172.218,68.6a2.319,2.319,0,0,1,0,4.638,2.319,2.319,0,1,1,0-4.638m0,4.078a1.532,1.532,0,0,0,1.6-1.679,1.6,1.6,0,0,0-1.6-1.759,1.558,1.558,0,0,0-1.6,1.759,1.5,1.5,0,0,0,1.6,1.679" transform="translate(-106.651 -66.201)"/><path class="d" d="M177.18,75.177c-.24-.16-.4-.24-.4-.48,0-.16.08-.24.24-.16a3.757,3.757,0,0,0,1.759.4c.8,0,1.759-.24,1.759-1.919v-.48a1.91,1.91,0,0,1-1.679.8,2.325,2.325,0,0,1,0-4.638,1.8,1.8,0,0,1,1.679.88v-.16c0-.4.16-.56.56-.56.16,0,.16.08.16.24v4.078a2.1,2.1,0,0,1-2.4,2.4,4.581,4.581,0,0,1-1.679-.4m1.839-5.917c-1.039,0-1.519.72-1.519,1.759a1.493,1.493,0,0,0,1.6,1.679,1.529,1.529,0,0,0,1.6-1.679c-.16-.88-.56-1.759-1.679-1.759" transform="translate(-108.015 -66.221)"/><path class="d" d="M186.118,68.6a2.319,2.319,0,0,1,0,4.638,2.319,2.319,0,0,1,0-4.638m0,4.078a1.532,1.532,0,0,0,1.6-1.679,1.6,1.6,0,0,0-1.6-1.759,1.558,1.558,0,0,0-1.6,1.759,1.5,1.5,0,0,0,1.6,1.679" transform="translate(-109.436 -66.201)"/><path class="d" d="M191.719,67.34v1.039h1.2c.16,0,.24,0,.24.24v.16c0,.24,0,.24-.24.24h-1.2v2.559c0,.64.32.8.64.8a1.506,1.506,0,0,0,.64-.16c.08,0,.16,0,.16.16a.481.481,0,0,1-.08.32c-.16.24-.48.32-.96.32-.8,0-1.119-.48-1.119-1.439V69.019h-.56c-.16,0-.24,0-.24-.24v-.16c0-.16,0-.24.24-.24H191v-.32c0-.72.24-.96.56-.96.16,0,.16,0,.16.24" transform="translate(-110.72 -65.901)"/><path class="d" d="M196.359,70.178a9.183,9.183,0,0,1,1.439.08V69.7c0-.96-.72-1.039-1.279-1.039a4.84,4.84,0,0,0-1.2.16c-.24.08-.32,0-.32-.08a.438.438,0,0,1,.32-.48,5.011,5.011,0,0,1,1.279-.16c.64,0,1.919.16,1.919,1.519V72.5c0,.16,0,.24-.16.24-.4,0-.56-.16-.56-.48a2.745,2.745,0,0,1-1.679.48c-1.039,0-1.519-.4-1.519-1.279,0-.96.56-1.279,1.759-1.279m1.359.64a7.317,7.317,0,0,0-1.279-.08c-.72,0-1.2.08-1.2.64s.4.72.96.72a2.267,2.267,0,0,0,1.519-.48v-.8Zm-.88-4.957c.08-.16.16-.16.4-.16h.4c.16,0,.16.08.08.24l-.96.96a.294.294,0,0,1-.24.08h-.32c-.08,0-.08,0-.08-.08Z" transform="translate(-111.602 -65.62)"/></g><text class="g" transform="translate(71.154 20.165)"><tspan x="0" y="0">Unidad de Transmisión</tspan><tspan x="0" y="22">Colombia</tspan></text></g></svg>