<svg xmlns="http://www.w3.org/2000/svg" xmlns:xlink="http://www.w3.org/1999/xlink" viewBox="0 0 159.954 64"><defs><style>.a{fill:#a6ce39;}.b{clip-path:url(#a);}.c{clip-path:url(#b);}.d,.g{fill:#00a34b;}.e{fill:#2376bc;}.f{fill:#2cace3;}.g{font-size:25px;font-family:AinslieSans-NorReg, AinslieSans-NorReg ☞;}</style><clipPath id="a"><rect width="38.157" height="38.157"/></clipPath><clipPath id="b"><rect width="32.947" height="38.157"/></clipPath></defs><g transform="translate(0 0)"><path class="a" d="M17.414,54.568a.294.294,0,0,1-.24-.08A18.744,18.744,0,0,1,10.2,39.5a18.8,18.8,0,0,1,7.215-14.91.345.345,0,0,1,.4.561A18.079,18.079,0,0,0,10.841,39.5a18.536,18.536,0,0,0,6.734,14.509c.16.08.16.321.08.481a.294.294,0,0,1-.24.08" transform="translate(-1.992 -4.867)"/><g transform="translate(12.616 14.99)"><g class="b"><path class="a" d="M34.8,56.757A19.019,19.019,0,0,1,17.644,46.015a21.962,21.962,0,0,1-1.363-3.848A13.948,13.948,0,0,1,15.8,38.56a.321.321,0,1,1,.641,0,23.8,23.8,0,0,0,.481,3.447,14.522,14.522,0,0,0,1.363,3.687,18.428,18.428,0,1,0,17.4-26.453.321.321,0,1,1,0-.641A19.015,19.015,0,0,1,52.033,29.342a18.822,18.822,0,0,1,.8,14.59,19.107,19.107,0,0,1-9.7,10.9A18.376,18.376,0,0,1,34.8,56.757" transform="translate(-15.72 -18.68)"/></g></g><g transform="translate(13.979 10.501)"><g class="c"><path class="d" d="M36.5,51.269a18.523,18.523,0,0,1-7.455-1.523A18.82,18.82,0,0,1,18.863,39.325a19.16,19.16,0,0,1,.16-14.59,19.065,19.065,0,0,1,25.011-10.02,19.758,19.758,0,0,1,3.607,2,19.5,19.5,0,0,1,2.726,2.4c.16.16.08.321,0,.481-.16.16-.321.08-.481,0A18.313,18.313,0,0,0,47.24,17.28a14.571,14.571,0,0,0-3.447-1.924A18.441,18.441,0,1,0,48.042,46.7a.345.345,0,1,1,.4.561A20.378,20.378,0,0,1,36.5,51.269" transform="translate(-17.42 -13.112)"/></g></g><path class="d" d="M10.4,32.077a8.577,8.577,0,1,1,8.577,8.577A8.587,8.587,0,0,1,10.4,32.077" transform="translate(-2.033 -4.662)"/><path class="d" d="M34.6,26.577A8.587,8.587,0,0,1,43.177,18a8.486,8.486,0,0,1,8.577,8.577,8.577,8.577,0,0,1-17.155,0" transform="translate(-6.833 -3.571)"/><path class="a" d="M43.19,57.1A6.569,6.569,0,1,1,50.4,62.956,6.567,6.567,0,0,1,43.19,57.1" transform="translate(-8.529 -9.889)"/><path class="a" d="M35.9,12.273a6.573,6.573,0,1,1,6.573,6.573A6.6,6.6,0,0,1,35.9,12.273" transform="translate(-7.091 -1.131)"/><path class="a" d="M16.1,66.573a6.573,6.573,0,1,1,6.573,6.573A6.6,6.6,0,0,1,16.1,66.573" transform="translate(-3.163 -11.903)"/><path class="e" d="M32,50.345a2.245,2.245,0,1,1,2.245,2.245A2.241,2.241,0,0,1,32,50.345" transform="translate(-6.318 -9.542)"/><path class="f" d="M64.1,17.155a.345.345,0,0,1-.321-.321A18.741,18.741,0,0,0,46.221.641.345.345,0,0,1,45.9.321.345.345,0,0,1,46.221,0a19.286,19.286,0,0,1,18.2,16.754.367.367,0,0,1-.321.4h0" transform="translate(-9.075)"/><path class="f" d="M53.7,48.755a7.455,7.455,0,1,1,7.455,7.455A7.493,7.493,0,0,1,53.7,48.755" transform="translate(-10.622 -8.193)"/><path class="f" d="M61.1,16.37a4.97,4.97,0,1,1,4.97,4.97,4.944,4.944,0,0,1-4.97-4.97" transform="translate(-12.09 -2.262)"/><path class="f" d="M20.2,13.345a2.245,2.245,0,1,1,2.245,2.245A2.241,2.241,0,0,1,20.2,13.345" transform="translate(-3.977 -2.202)"/><path class="d" d="M46.854,78.939a1.6,1.6,0,1,1,2.084-.882,1.627,1.627,0,0,1-2.084.882" transform="translate(-9.067 -15.049)"/><path class="e" d="M37.1,63.77a4.97,4.97,0,1,1,4.97,4.97,4.944,4.944,0,0,1-4.97-4.97" transform="translate(-7.329 -11.665)"/><path class="e" d="M5.3,52.47a4.97,4.97,0,1,1,4.97,4.97A4.944,4.944,0,0,1,5.3,52.47" transform="translate(-1.021 -9.423)"/><path class="d" d="M.954,21.439a1.627,1.627,0,0,1-.882-2.084,1.627,1.627,0,0,1,2.084-.882,1.627,1.627,0,0,1,.882,2.084,1.6,1.6,0,0,1-2.084.882" transform="translate(0.038 -3.643)"/><g transform="translate(72.818 45.452)"><path d="M94.728,60.147h1.764c.24,0,.321,0,.321.321v2.565c0,.24,0,.321-.24.4a5.1,5.1,0,0,1-2.245.4c-2.485,0-3.527-1.443-3.527-3.527,0-2.164,1.042-3.607,3.607-3.607a3.243,3.243,0,0,1,2.084.561.542.542,0,0,1,.24.481c0,.16,0,.24-.16.16a4.417,4.417,0,0,0-2.164-.561c-2.084,0-2.886,1.2-2.886,2.966,0,1.683.721,2.886,2.806,2.886a3.924,3.924,0,0,0,1.764-.321V60.788H94.968a.462.462,0,0,1-.481-.481c-.08-.16,0-.16.24-.16" transform="translate(-90.8 -56.7)"/><path d="M100.441,62.185v1.844c0,.24,0,.24-.24.24h-.16c-.24,0-.24,0-.24-.24V60.021c0-.16,0-.24.16-.24.4,0,.561.16.561.561v.321A1.252,1.252,0,0,1,101.8,59.7c.561,0,.721.24.721.561,0,.16,0,.16-.16.16a1.364,1.364,0,0,0-.561-.08c-.882-.08-1.283.641-1.363,1.844" transform="translate(-92.585 -57.295)"/><path d="M107.126,63.808v-.16a1.753,1.753,0,0,1-1.523.721c-1.122,0-1.6-.641-1.6-1.683V60.04c0-.16,0-.24.16-.24.4,0,.561.16.561.561v2.325a.991.991,0,0,0,1.042,1.122,1.227,1.227,0,0,0,1.363-1.2V60.04c0-.16,0-.24.16-.24.4,0,.561.16.561.561v3.768c0,.16,0,.24-.16.24-.4,0-.561-.16-.561-.561" transform="translate(-93.419 -57.315)"/><path d="M111.141,63.548v2.726c0,.24,0,.24-.24.24h-.16c-.24,0-.24,0-.24-.24V60.021c0-.16,0-.24.16-.24.4,0,.561.16.561.561v.24A1.966,1.966,0,0,1,112.9,59.7a2.107,2.107,0,0,1,2.164,2.325,2.067,2.067,0,0,1-2.164,2.325,1.877,1.877,0,0,1-1.764-.8m1.523.16a1.536,1.536,0,0,0,1.6-1.683c0-.962-.481-1.764-1.523-1.764a1.6,1.6,0,0,0-1.6,1.764,1.434,1.434,0,0,0,1.523,1.683" transform="translate(-94.708 -57.295)"/><path d="M119.425,59.7a2.325,2.325,0,1,1,0,4.649,2.111,2.111,0,0,1-2.325-2.325,2.147,2.147,0,0,1,2.325-2.325m0,4.088a1.536,1.536,0,0,0,1.6-1.683,1.6,1.6,0,0,0-1.6-1.764,1.562,1.562,0,0,0-1.6,1.764,1.5,1.5,0,0,0,1.6,1.683" transform="translate(-96.017 -57.295)"/><path class="d" d="M124.3,63.453V57.121c0-.321.08-.321.321-.321h3.367c.16,0,.24,0,.24.16,0,.24-.16.481-.641.481H125.1v2.4h2.4c.16,0,.24,0,.24.16,0,.24-.16.481-.641.481h-1.924v2.645h2.886c.24,0,.24,0,.24.24v.16c0,.16,0,.24-.24.24h-3.287c-.4-.08-.481-.08-.481-.321" transform="translate(-97.446 -56.72)"/><path class="d" d="M133.847,64.289h-.16c-.24,0-.24,0-.24-.24V61.564c0-.721-.321-1.2-1.122-1.2s-1.2.481-1.283,1.283v2.485c0,.24,0,.24-.24.24h-.16c-.24,0-.24,0-.24-.24V60.121c0-.16,0-.24.16-.24.4,0,.561.16.561.561v.08a1.6,1.6,0,0,1,1.443-.721c1.122,0,1.6.721,1.6,1.764v2.565c-.08.16-.16.16-.321.16" transform="translate(-98.656 -57.315)"/><path class="d" d="M137.141,62.326c.08,1.042.641,1.363,1.6,1.363a3.821,3.821,0,0,0,1.764-.4c.16-.08.24,0,.24.08a.513.513,0,0,1-.4.561,4.023,4.023,0,0,1-1.6.321A1.993,1.993,0,0,1,136.5,62c0-1.6.8-2.4,2.164-2.4,1.443,0,2.084.882,2.084,2.245,0,.24-.08.4-.4.4h-3.206Zm0-.561h2.886a1.369,1.369,0,0,0-1.443-1.523c-.882,0-1.363.561-1.443,1.523" transform="translate(-99.866 -57.275)"/><path class="d" d="M143.841,62.185v1.844c0,.24,0,.24-.24.24h-.16c-.24,0-.24,0-.24-.24V60.021c0-.16,0-.24.16-.24.4,0,.561.16.561.561v.321A1.252,1.252,0,0,1,145.2,59.7c.561,0,.721.24.721.561,0,.16,0,.16-.16.16a1.364,1.364,0,0,0-.561-.08c-.962-.08-1.363.641-1.363,1.844" transform="translate(-101.195 -57.295)"/><path class="d" d="M147.281,66.193c-.24-.16-.4-.24-.4-.481,0-.16.08-.24.24-.16a3.767,3.767,0,0,0,1.764.4c.8,0,1.764-.24,1.764-1.924v-.481a1.915,1.915,0,0,1-1.683.8,2.331,2.331,0,0,1,0-4.649,1.8,1.8,0,0,1,1.683.882v-.16c0-.4.16-.561.561-.561.16,0,.16.08.16.24v4.088a2.11,2.11,0,0,1-2.4,2.4,3.77,3.77,0,0,1-1.683-.4m1.764-5.852c-1.042,0-1.523.721-1.523,1.764a1.5,1.5,0,0,0,1.6,1.683,1.533,1.533,0,0,0,1.6-1.683c-.08-.962-.561-1.764-1.683-1.764" transform="translate(-101.909 -57.295)"/><path class="d" d="M154.621,56.96c.08-.16.16-.16.4-.16h.4c.16,0,.16.08.08.24l-.962.962a.3.3,0,0,1-.241.08h-.321c-.08,0-.08,0-.08-.08Zm.16,2.806v3.687c0,.24,0,.24-.241.24h-.16c-.241,0-.241,0-.241-.24V59.445c0-.16,0-.24.16-.24.321,0,.481.16.481.561" transform="translate(-103.318 -56.72)"/><path class="d" d="M157.964,61.884a9.206,9.206,0,0,1,1.443.08V61.4c0-.962-.721-1.042-1.283-1.042a4.851,4.851,0,0,0-1.2.16c-.24.08-.321,0-.321-.08a.44.44,0,0,1,.321-.481,5.024,5.024,0,0,1,1.283-.16c.641,0,1.924.16,1.924,1.523v2.886c0,.16,0,.24-.16.24-.4,0-.561-.16-.561-.481a2.752,2.752,0,0,1-1.683.481c-1.042,0-1.523-.4-1.523-1.283,0-.962.641-1.283,1.764-1.283m1.443.561a7.335,7.335,0,0,0-1.283-.08c-.721,0-1.2.08-1.2.641s.4.721.962.721a2.273,2.273,0,0,0,1.523-.481v-.8Z" transform="translate(-103.774 -57.315)"/><path class="d" d="M163.34,63.694c-.24,0-.24,0-.24-.24V57.121c0-.24.08-.321.321-.321h1.924c1.363,0,1.924.8,1.924,1.683a1.534,1.534,0,0,1-1.042,1.6,1.582,1.582,0,0,1,1.523,1.764c0,1.122-.721,1.924-2.245,1.924H163.34Zm.4-6.333v2.4h1.523a1.1,1.1,0,0,0,1.2-1.2c0-.641-.321-1.2-1.363-1.2Zm0,3.046v2.726h1.6c1.122,0,1.6-.561,1.6-1.363,0-.882-.561-1.363-1.6-1.363h-1.6Z" transform="translate(-105.143 -56.72)"/><path class="d" d="M172.223,59.7a2.325,2.325,0,0,1,0,4.649,2.325,2.325,0,1,1,0-4.649m0,4.088a1.536,1.536,0,0,0,1.6-1.683,1.6,1.6,0,0,0-1.6-1.764,1.562,1.562,0,0,0-1.6,1.764,1.5,1.5,0,0,0,1.6,1.683" transform="translate(-106.49 -57.295)"/><path class="d" d="M177.181,66.193c-.24-.16-.4-.24-.4-.481,0-.16.08-.24.24-.16a3.767,3.767,0,0,0,1.764.4c.8,0,1.764-.24,1.764-1.924v-.481a1.915,1.915,0,0,1-1.683.8,2.331,2.331,0,0,1,0-4.649,1.8,1.8,0,0,1,1.683.882v-.16c0-.4.16-.561.561-.561.16,0,.16.08.16.24v4.088a2.11,2.11,0,0,1-2.4,2.4,4.593,4.593,0,0,1-1.683-.4m1.844-5.852c-1.042,0-1.523.721-1.523,1.764a1.5,1.5,0,0,0,1.6,1.683,1.533,1.533,0,0,0,1.6-1.683c-.16-.962-.561-1.764-1.683-1.764" transform="translate(-107.841 -57.295)"/><path class="d" d="M186.123,59.7a2.325,2.325,0,1,1,0,4.649,2.325,2.325,0,0,1,0-4.649m0,4.088a1.536,1.536,0,0,0,1.6-1.683,1.6,1.6,0,0,0-1.6-1.764,1.562,1.562,0,0,0-1.6,1.764,1.5,1.5,0,0,0,1.6,1.683" transform="translate(-109.248 -57.295)"/><path class="d" d="M191.723,58.34v1.042h1.2c.16,0,.24,0,.24.24v.16c0,.24,0,.24-.24.24h-1.2v2.565c0,.641.321.8.641.8a1.51,1.51,0,0,0,.641-.16c.08,0,.16,0,.16.16a.482.482,0,0,1-.08.321c-.16.24-.481.321-.962.321-.8,0-1.122-.481-1.122-1.443V60.024h-.561c-.16,0-.24,0-.24-.24v-.16c0-.16,0-.24.24-.24H191v-.321c0-.721.24-.962.561-.962.16,0,.16.08.16.24" transform="translate(-110.519 -56.978)"/><path class="d" d="M196.364,61.289a9.206,9.206,0,0,1,1.443.08v-.561c0-.962-.721-1.042-1.283-1.042a4.851,4.851,0,0,0-1.2.16c-.241.08-.321,0-.321-.08a.44.44,0,0,1,.321-.481,5.024,5.024,0,0,1,1.283-.16c.641,0,1.924.16,1.924,1.523v2.886c0,.16,0,.24-.16.24-.4,0-.561-.16-.561-.481a2.752,2.752,0,0,1-1.683.481c-1.042,0-1.523-.4-1.523-1.283,0-.962.561-1.283,1.764-1.283m1.363.561a7.335,7.335,0,0,0-1.283-.08c-.721,0-1.2.08-1.2.641s.4.721.962.721a2.273,2.273,0,0,0,1.523-.481Zm-.882-4.89c.08-.16.16-.16.4-.16h.4c.16,0,.16.08.08.24l-.962.962a.294.294,0,0,1-.24.08H196.2c-.08,0-.08,0-.08-.08Z" transform="translate(-111.392 -56.72)"/></g><text class="g" transform="translate(70.714 40.03)"><tspan x="0" y="0">Trecsa</tspan></text></g></svg>